<svg id="Layer_1" data-name="Layer 1" xmlns="http://www.w3.org/2000/svg" viewBox="0 0 518.86 547.65"><defs><style>.cls-1{fill:none;}.cls-2{fill:#999;}.cls-3{fill:gray;}</style></defs><title>client_logo</title><path class="cls-1" d="M422.14,20.35V568H617.37c-13.91-3.91-19.91-12.4-20.1-26.72-.13-9.9-3.85-19.83-6.53-29.6-1.8-6.57-6.9-10.57-13.89-11.34-6.36-.7-12.82-.55-19.24-.67-17.25-.32-34.57.25-51.71-1.23-8.11-.7-16.48-4.26-23.65-8.29-19.41-10.93-24.74-25.19-18.42-45.89a118.74,118.74,0,0,1,5.31-15.19c3.68-7.95,1.92-14.43-3.74-20.93-12-13.8-11.85-13.94-.86-28.23-1.61-1.43-3.32-2.84-4.92-4.37-7.41-7.13-7.77-14.07-2.52-22.82,4-6.66,6.86-13.94,10.79-22.12-4.64-1.21-7.75-1.62-10.51-2.8-8.72-3.73-17.88-6.9-25.79-11.87-7.48-4.71-10.1-12.85-6.32-21,4.27-9.16,8.9-18.45,15.13-26.42,15.64-20,32.4-39.27,48.35-59.09,2.23-2.77,4-7.35,3.33-10.54-4.41-20.12-1.06-39.32,6.69-57.91,25.44-61.11,73.51-97,139-111.75,61.69-13.88,122.4-8.63,180.91,14.81,82.86,33.2,128.8,108.77,119.52,194-4.81,44.28-17.63,85.44-46.74,120.93-1.81,2.21-3.35,4.62-5,7-23.52,34-27.71,57.07-17.58,98.6L888.21,463c3,18.37,10.12,36.93,7.54,54.15-2.15,14.37,4.22,26.25,2.83,40.74l-39.68,8c-1.78-8.52-3-16.28-5.09-23.84-1.37-5.1.76-12.06-7.46-14.26-1.1-.3-1.36-4.07-1.71-6.28-2.35-14.46-4.3-29-7-43.38-1.37-7.25.51-10.65,8.5-10.55,3.14,0,6.29-.9,10.32-1.54-.84-8.75-1.26-17.38-2.56-25.89-3.94-26,1.88-49.77,17-71.54,5.52-8,11.21-15.82,16.7-23.81C927.38,287,939,224.17,917.31,158,899,102.16,856.17,67.48,799.83,48.73c-63.18-21-127.35-22.88-190.17.81C555.55,70,518.32,106.91,504.45,162.44c-2.71,10.85-1.7,22.88-.53,34.19.79,7.69-.49,13.62-5.43,19.48-15.86,18.82-31.71,37.64-47.07,56.84-5.49,6.85-10,14.54-14.16,22.23-3.34,6.11-1.67,11.73,5.15,14.8,6,2.71,12.16,5.61,18.59,7,15.39,3.29,19.63,9,14.69,23.14-2.29,6.54-6.25,12.53-8.75,19a9.94,9.94,0,0,0,.67,8c3,4.54,9.65,8.32,9.86,12.64.23,4.56-5.29,9.39-8.56,14.51a1.15,1.15,0,0,0,.25.93c14.76,13,17.11,28,8.09,45-.26.5-.32,1.09-.55,1.6-11.15,25.53,3,38.42,25.5,44.53,10.75,2.92,22.58,2.59,33.95,2.87,12,.3,24-1,36-.59,17.42.55,26.63,7.56,30.85,23.62a235.11,235.11,0,0,1,6,32.3c.88,7.54,4.44,11.27,12,11.94,3.2.28,6.43.49,9.65.47q56.26-.28,112.54-.67c10.53-.07,12.81-2.2,12.88-12.5.12-19.1,0-38.2,0-58.23H737.64V429.2c11.12-12.08,3.11-27.13,7.08-40.79H785c0,9.89-.34,19.1.18,28.27.19,3.27,2.49,6.42,3.78,9.65a9.38,9.38,0,0,1,1,3.12c.06,18.51,0,37,0,56.08H768.45c0,5.74.08,11,0,16.16-.25,13.79-1.13,27.61-.72,41.38.4,13.22-5.24,21.44-18.44,24.93H941V20.35ZM769.87,339.09c-2-.24-4-.73-6-1-.5-.06-1.06.34-2.11.71,2.1,5.76,4.62,11.43,6.11,17.33.75,3,.79,8.25-.86,9.19-3.08,1.74-8.77,2.69-11.33,1a42.48,42.48,0,0,1-12.87-13.08c-7.6-12.33-13.56-25.6-21.44-37.74-6-9.18-13.7-17.33-21.1-25.56-1.15-1.28-4.73-.87-7.15-.74-9.91.57-19.8,1.5-29.72,2-24.88,1.25-43.21-12.1-61.09-26-2.38-1.85-3.81-5.69-4.27-8.8-1.9-12.68-5.22-16.41-18.33-19.84-19.48-5.08-36.26-13.17-41.77-34.23-.72-2.77-3.64-5-5.49-7.52-6.3-8.59-10.68-17.58-6.09-28.35.32-.75.9-1.73.66-2.34-6.66-16.72,7-27.88,12.32-41.27,1-2.48,3.42-4.55,5.52-6.49q12.93-12,26.1-23.77c7.79-7,15.86-13.32,27.33-13.94,2.55-.14,5.16-2.3,7.42-3.94,11.82-8.6,25.16-12.86,39.87-13.94,9.25-.68,18.44-2.93,27.67-3,23.66-.15,47.28-6,71,2.8,14.21,5.24,30.07,6.29,45.14,9.43,25.79,5.39,44.93,19.59,58.57,41.08a19.23,19.23,0,0,0,5.44,5.22c11.44,7.78,19.94,17.35,21.65,31.33a9.36,9.36,0,0,0,1.18,4c6.68,10,13.68,19.88,20.13,30a41.5,41.5,0,0,1,5.2,12.47c4.62,19.67,6.05,39.57,2.3,59.53C899,279.48,886.65,289.87,856,294.16c1.35,14.93-12.39,35-29.86,40.9C807.57,341.35,788.91,341.35,769.87,339.09Z" transform="translate(-422.14 -20.35)"/><path d="M767.72,543.07c-.41-13.77.47-27.59.72-41.38.09-5.21,0-10.42,0-16.16H790c0-19.06,0-37.57,0-56.08a9.38,9.38,0,0,0-1-3.12c-1.29-3.23-3.59-6.38-3.78-9.65-.52-9.17-.18-18.38-.18-28.27h-40.3c-4,13.66,4,28.71-7.08,40.79v56.32h18.43c0,20,.09,39.13,0,58.23-.07,10.3-2.35,12.43-12.88,12.5q-56.28.39-112.54.67c-3.22,0-6.45-.19-9.65-.47-7.52-.67-11.08-4.4-12-11.94a235.11,235.11,0,0,0-6-32.3c-4.22-16.06-13.43-23.07-30.85-23.62-12-.37-24,.89-36,.59-11.37-.28-23.2.05-33.95-2.87-22.53-6.11-36.65-19-25.5-44.53.23-.51.29-1.1.55-1.6,9-16.94,6.67-32-8.09-45a1.15,1.15,0,0,1-.25-.93c3.27-5.12,8.79-9.95,8.56-14.51-.21-4.32-6.88-8.1-9.86-12.64a9.94,9.94,0,0,1-.67-8c2.5-6.49,6.46-12.48,8.75-19,4.94-14.1.7-19.85-14.69-23.14-6.43-1.37-12.57-4.27-18.59-7-6.82-3.07-8.49-8.69-5.15-14.8,4.2-7.69,8.67-15.38,14.16-22.23,15.36-19.2,31.21-38,47.07-56.84,4.94-5.86,6.22-11.79,5.43-19.48-1.17-11.31-2.18-23.34.53-34.19,13.87-55.53,51.1-92.48,105.21-112.9,62.82-23.69,127-21.84,190.17-.81C856.17,67.48,899,102.16,917.31,158c21.73,66.22,10.07,129-29.76,186.89-5.49,8-11.18,15.84-16.7,23.81-15.1,21.77-20.92,45.53-17,71.54,1.3,8.51,1.72,17.14,2.56,25.89-4,.64-7.18,1.58-10.32,1.54-8-.1-9.87,3.3-8.5,10.55,2.73,14.39,4.68,28.92,7,43.38.35,2.21.61,6,1.71,6.28,8.22,2.2,6.09,9.16,7.46,14.26,2,7.56,3.31,15.32,5.09,23.84l39.68-8c1.39-14.49-5-26.37-2.83-40.74,2.58-17.22-4.55-35.78-7.54-54.15l-19.34,1.61c-10.13-41.53-5.94-64.59,17.58-98.6,1.62-2.35,3.16-4.76,5-7,29.11-35.49,41.93-76.65,46.74-120.93,9.28-85.27-36.66-160.84-119.52-194C760.13,20.62,699.42,15.37,637.73,29.25,572.28,44,524.21,79.89,498.77,141c-7.75,18.59-11.1,37.79-6.69,57.91.7,3.19-1.1,7.77-3.33,10.54C472.8,229.27,456,248.5,440.4,268.54c-6.23,8-10.86,17.26-15.13,26.42-3.78,8.12-1.16,16.26,6.32,21,7.91,5,17.07,8.14,25.79,11.87,2.76,1.18,5.87,1.59,10.51,2.8-3.93,8.18-6.8,15.46-10.79,22.12-5.25,8.75-4.89,15.69,2.52,22.82,1.6,1.53,3.31,2.94,4.92,4.37-11,14.29-11.17,14.43.86,28.23,5.66,6.5,7.42,13,3.74,20.93a118.74,118.74,0,0,0-5.31,15.19c-6.32,20.7-1,35,18.42,45.89,7.17,4,15.54,7.59,23.65,8.29,17.14,1.48,34.46.91,51.71,1.23,6.42.12,12.88,0,19.24.67,7,.77,12.09,4.77,13.89,11.34,2.68,9.77,6.4,19.7,6.53,29.6.19,14.32,6.19,22.81,20.1,26.72H749.28C762.48,564.51,768.12,556.29,767.72,543.07ZM889.23,522.6c2.19,10.88,4.32,21.42,6.6,32.69l-34.5,7c-2.28-11.4-4.41-22-6.74-33.58ZM747.08,424.5V391.64h34.59V424.5Z" transform="translate(-422.14 -20.35)"/><path d="M856,294.16c30.62-4.29,43-14.68,47.81-40.45,3.75-20,2.32-39.86-2.3-59.53a41.5,41.5,0,0,0-5.2-12.47c-6.45-10.16-13.45-20-20.13-30a9.36,9.36,0,0,1-1.18-4c-1.71-14-10.21-23.55-21.65-31.33a19.23,19.23,0,0,1-5.44-5.22C834.3,89.63,815.16,75.43,789.37,70c-15.07-3.14-30.93-4.19-45.14-9.43-23.75-8.76-47.37-3-71-2.8-9.23.07-18.42,2.32-27.67,3-14.71,1.08-28,5.34-39.87,13.94-2.26,1.64-4.87,3.8-7.42,3.94-11.47.62-19.54,7-27.33,13.94q-13.15,11.78-26.1,23.77c-2.1,1.94-4.54,4-5.52,6.49-5.32,13.39-19,24.55-12.32,41.27.24.61-.34,1.59-.66,2.34-4.59,10.77-.21,19.76,6.09,28.35,1.85,2.52,4.77,4.75,5.49,7.52,5.51,21.06,22.29,29.15,41.77,34.23,13.11,3.43,16.43,7.16,18.33,19.84.46,3.11,1.89,6.95,4.27,8.8,17.88,13.91,36.21,27.26,61.09,26,9.92-.5,19.81-1.43,29.72-2,2.42-.13,6-.54,7.15.74,7.4,8.23,15.14,16.38,21.1,25.56,7.88,12.14,13.84,25.41,21.44,37.74a42.48,42.48,0,0,0,12.87,13.08c2.56,1.65,8.25.7,11.33-1,1.65-.94,1.61-6.21.86-9.19-1.49-5.9-4-11.57-6.11-17.33,1-.37,1.61-.77,2.11-.71,2,.26,4,.75,6,1,19,2.26,37.7,2.26,56.3-4C843.64,329.15,857.38,309.09,856,294.16Z" transform="translate(-422.14 -20.35)"/><path class="cls-2" d="M781.67,391.64H747.08V424.5h34.59Zm-21.38,12.45H751v-8.52h9.31Z" transform="translate(-422.14 -20.35)"/><path class="cls-3" d="M861.33,562.24l34.5-7c-2.28-11.27-4.41-21.81-6.6-32.69l-34.64,6.06C856.92,540.24,859.05,550.84,861.33,562.24ZM872,546.41c.78,2.93,1.44,5.46,2.35,8.9l-10.14,1.82c-.63-3.25-1.13-5.79-1.73-8.83Z" transform="translate(-422.14 -20.35)"/><path d="M751,404.09h9.31v-8.52H751Z" transform="translate(-422.14 -20.35)"/><path d="M874.3,555.31c-.91-3.44-1.57-6-2.35-8.9l-9.52,1.89c.6,3,1.1,5.58,1.73,8.83Z" transform="translate(-422.14 -20.35)"/><path d="M768,404.09h9.31v-8.52H768Z" transform="translate(-422.14 -20.35)"/><path d="M881.83,552.87l9.15-1.69-1.54-8.39-9.15,1.69Z" transform="translate(-422.14 -20.35)"/></svg>