<svg xmlns="http://www.w3.org/2000/svg" viewBox="0 0 71.45 74.94"><defs><style>.cls-1{fill:#ffe784;}.cls-2{fill:none;}.cls-3{fill:#999;}.cls-4{fill:gray;}</style></defs><title>Asset 1</title><g id="Layer_2" data-name="Layer 2"><g id="Layer_1-2" data-name="Layer 1"><rect class="cls-1" x="0.92" y="1.38" width="70.03" height="72.62"/><path class="cls-1" d="M70.45,1.88V73.5h-69V1.88h69m1-1H.42V74.5h71V.88Z"/><path class="cls-2" d="M0,0V74.94H26.72A3.45,3.45,0,0,1,24,71.25a16.75,16.75,0,0,0-.9-4,2.09,2.09,0,0,0-1.9-1.55c-.87-.09-1.75-.07-2.63-.09-2.36,0-4.73,0-7.08-.17a8.37,8.37,0,0,1-3.24-1.13C5.57,62.77,4.84,60.82,5.7,58a16.52,16.52,0,0,1,.73-2.08,2.43,2.43,0,0,0-.51-2.86c-1.64-1.89-1.62-1.91-.12-3.86-.22-.2-.45-.39-.67-.6a2.2,2.2,0,0,1-.35-3.12c.55-.91.94-1.91,1.48-3a11,11,0,0,1-1.44-.38,25.13,25.13,0,0,1-3.53-1.62,2.16,2.16,0,0,1-.86-2.87A17.76,17.76,0,0,1,2.5,34c2.14-2.73,4.43-5.37,6.61-8.08a2,2,0,0,0,.46-1.44,13,13,0,0,1,.92-7.92C14,8.16,20.55,3.25,29.51,1.23a41.08,41.08,0,0,1,24.76,2C65.61,7.8,71.89,18.13,70.62,29.78c-.65,6.06-2.41,11.69-6.39,16.54-.25.3-.46.63-.69,1-3.22,4.65-3.79,7.8-2.4,13.48l2.64-.21c.41,2.51,1.39,5,1,7.4-.29,2,.58,3.59.39,5.57l-5.43,1.1c-.24-1.17-.41-2.23-.7-3.26-.18-.7.11-1.65-1-2-.15,0-.18-.56-.23-.86-.32-2-.59-4-1-5.93-.19-1,.07-1.46,1.17-1.45A9.65,9.65,0,0,0,59.44,61c-.12-1.19-.17-2.37-.35-3.54a13.11,13.11,0,0,1,2.32-9.78c.76-1.09,1.54-2.16,2.29-3.25,5.44-7.91,7-16.5,4.07-25.55C65.26,11.21,59.4,6.46,51.69,3.9,43,1,34.26.77,25.66,4c-7.4,2.8-12.5,7.85-14.4,15.44a13.8,13.8,0,0,0-.07,4.67,3.27,3.27,0,0,1-.74,2.67C8.28,29.36,6.11,31.93,4,34.56a19.81,19.81,0,0,0-1.94,3,1.32,1.32,0,0,0,.7,2,13.09,13.09,0,0,0,2.55,1c2.1.45,2.68,1.23,2,3.17-.32.89-.86,1.71-1.2,2.59a1.37,1.37,0,0,0,.09,1.1c.41.62,1.32,1.13,1.35,1.73s-.72,1.28-1.17,2a.15.15,0,0,0,0,.13,4.56,4.56,0,0,1,1.11,6.15c0,.07,0,.15-.07.22-1.53,3.49.41,5.25,3.49,6.09a19.84,19.84,0,0,0,4.64.39c1.64,0,3.29-.14,4.93-.08,2.38.08,3.64,1,4.22,3.23a31.55,31.55,0,0,1,.82,4.42,1.61,1.61,0,0,0,1.64,1.63,11.66,11.66,0,0,0,1.32.06q7.71,0,15.41-.09c1.44,0,1.75-.3,1.76-1.71,0-2.61,0-5.22,0-7.87H43.25V56c1.53-1.67.43-3.74,1-5.63h5.57c0,1.37,0,2.64,0,3.9a5.09,5.09,0,0,0,.52,1.33,1.36,1.36,0,0,1,.14.43c0,2.56,0,5.11,0,7.74H47.39c0,.78,0,1.5,0,2.2,0,1.87-.16,3.75-.1,5.63a3,3,0,0,1-2.51,3.39H71V0ZM47.59,43.6c-.28,0-.55-.1-.82-.13-.07,0-.15,0-.29.09.28.79.63,1.57.83,2.37.11.41.11,1.13-.11,1.26a1.83,1.83,0,0,1-1.55.14,5.71,5.71,0,0,1-1.77-1.79C42.84,43.85,42,42,41,40.38a30,30,0,0,0-2.89-3.5c-.16-.17-.65-.12-1-.1-1.35.08-2.71.21-4.06.28-3.41.17-5.92-1.66-8.36-3.56a1.94,1.94,0,0,1-.59-1.2c-.26-1.74-.71-2.25-2.51-2.72-2.66-.69-5-1.8-5.71-4.68-.1-.38-.5-.68-.75-1-.87-1.17-1.47-2.4-.84-3.87.05-.1.12-.24.09-.32-.91-2.29,1-3.81,1.69-5.65a2.82,2.82,0,0,1,.75-.88q1.77-1.65,3.58-3.25A6,6,0,0,1,24.11,8a2.23,2.23,0,0,0,1-.54,10.3,10.3,0,0,1,5.46-1.9c1.26-.1,2.52-.4,3.78-.41,3.24,0,6.47-.82,9.72.38a43.42,43.42,0,0,0,6.18,1.29,12.08,12.08,0,0,1,8,5.62,2.82,2.82,0,0,0,.75.71,6,6,0,0,1,3,4.28,1.3,1.3,0,0,0,.16.55c.92,1.37,1.88,2.72,2.76,4.1a5.58,5.58,0,0,1,.71,1.71,19.44,19.44,0,0,1,.31,8.14c-.66,3.53-2.35,4.95-6.55,5.54.19,2-1.69,4.79-4.08,5.59A17.18,17.18,0,0,1,47.59,43.6Z"/><path d="M47.29,71.54c-.06-1.87.06-3.75.09-5.62,0-.71,0-1.42,0-2.2h3V56a1.33,1.33,0,0,0-.13-.43,4.77,4.77,0,0,1-.52-1.33c-.07-1.26,0-2.53,0-3.9H44.21c-.54,1.89.54,4-1,5.63v7.64H45.7c0,2.77,0,5.39,0,8,0,1.41-.32,1.7-1.76,1.71l-15.4.09c-.44,0-.89,0-1.32-.06a1.62,1.62,0,0,1-1.65-1.64,31.41,31.41,0,0,0-.82-4.41c-.57-2.2-1.84-3.16-4.22-3.23-1.64,0-3.28.12-4.93.08A20.4,20.4,0,0,1,11,63.74c-3.09-.84-5-2.6-3.49-6.09,0-.07,0-.15.07-.22a4.57,4.57,0,0,0-1.1-6.16.14.14,0,0,1,0-.12c.45-.7,1.2-1.36,1.17-2s-.94-1.1-1.35-1.73a1.38,1.38,0,0,1-.09-1.09c.34-.89.89-1.71,1.2-2.6.68-1.93.1-2.71-2-3.16a13,13,0,0,1-2.54-1,1.32,1.32,0,0,1-.71-2,20.89,20.89,0,0,1,1.94-3c2.1-2.63,4.27-5.2,6.44-7.78a3.22,3.22,0,0,0,.74-2.66,13.54,13.54,0,0,1,.08-4.67c1.89-7.6,7-12.65,14.39-15.44,8.6-3.24,17.39-3,26-.11,7.71,2.56,13.57,7.31,16.08,14.94,3,9.06,1.37,17.64-4.08,25.56-.75,1.09-1.53,2.16-2.28,3.25a13.13,13.13,0,0,0-2.33,9.79c.18,1.16.24,2.34.35,3.54a11,11,0,0,1-1.41.21c-1.1,0-1.35.45-1.16,1.44.37,2,.64,3.95,1,5.93,0,.3.09.82.24.86,1.12.3.83,1.25,1,2,.27,1,.45,2.09.69,3.26l5.44-1.09c.19-2-.69-3.61-.39-5.57.35-2.36-.62-4.9-1-7.41l-2.65.22C59.74,55.1,60.32,52,63.54,47.3c.22-.32.43-.65.68-1,4-4.85,5.74-10.48,6.4-16.54,1.27-11.66-5-22-16.36-26.52a41,41,0,0,0-24.76-2c-8.95,2-15.53,6.92-19,15.28a13,13,0,0,0-.92,7.92,2,2,0,0,1-.46,1.44C6.93,28.59,4.63,31.22,2.5,34A18,18,0,0,0,.43,37.57a2.16,2.16,0,0,0,.86,2.87,24,24,0,0,0,3.53,1.62,10.75,10.75,0,0,0,1.44.39c-.54,1.12-.93,2.11-1.48,3a2.2,2.2,0,0,0,.35,3.12c.22.21.45.4.67.6-1.5,2-1.53,2,.12,3.86a2.43,2.43,0,0,1,.51,2.86A17.09,17.09,0,0,0,5.7,58c-.86,2.83-.13,4.79,2.52,6.27a8.56,8.56,0,0,0,3.24,1.14c2.35.2,4.72.12,7.08.17.88,0,1.76,0,2.63.09a2.07,2.07,0,0,1,1.9,1.55,16.54,16.54,0,0,1,.9,4.05c0,1.95,2.75,3.68,2.75,3.68H44.78A3.05,3.05,0,0,0,47.29,71.54ZM63.92,68.7c.3,1.49.59,2.93.91,4.47l-4.73,1-.92-4.6ZM44.48,55.24V50.73h4.79v4.51Z"/><path d="M59.37,37.46c4.2-.59,5.89-2,6.55-5.53a19.43,19.43,0,0,0-.32-8.14,5.69,5.69,0,0,0-.71-1.71c-.88-1.39-1.84-2.73-2.75-4.1a1.31,1.31,0,0,1-.17-.55,6,6,0,0,0-3-4.28,2.78,2.78,0,0,1-.74-.71,12.08,12.08,0,0,0-8-5.63,42.85,42.85,0,0,1-6.18-1.29c-3.25-1.2-6.48-.41-9.72-.38-1.26,0-2.52.31-3.79.41a10.29,10.29,0,0,0-5.45,1.9,2.21,2.21,0,0,1-1,.54A6.1,6.1,0,0,0,20.36,9.9q-1.8,1.61-3.57,3.25A2.6,2.6,0,0,0,16,14c-.73,1.84-2.6,3.36-1.69,5.65,0,.08,0,.22-.09.32-.63,1.47,0,2.7.83,3.87.26.35.66.65.75,1,.76,2.88,3.05,4,5.72,4.68,1.79.47,2.25,1,2.51,2.72a2,2,0,0,0,.58,1.2c2.45,1.9,5,3.73,8.36,3.56,1.36-.07,2.71-.2,4.07-.28.33,0,.82-.07,1,.1A30,30,0,0,1,41,40.38C42,42,42.84,43.85,43.88,45.54a5.78,5.78,0,0,0,1.76,1.79,1.91,1.91,0,0,0,1.55-.14c.23-.13.22-.85.12-1.26a23.92,23.92,0,0,0-.84-2.37c.14-.05.22-.1.29-.09.28,0,.55.1.82.13a17.37,17.37,0,0,0,7.71-.54C57.68,42.25,59.56,39.5,59.37,37.46Z"/><path class="cls-3" d="M49.27,50.73H44.48v4.51h4.79Zm-3,1.78H45V51.28h1.23Z"/><path class="cls-4" d="M60.1,74.12l4.73-1c-.32-1.54-.61-3-.91-4.47l-4.74.83C59.5,71.11,59.79,72.56,60.1,74.12ZM61.56,72c.11.4.2.75.33,1.22l-1.39.25c-.09-.44-.16-.79-.24-1.21Z"/><path d="M45,52.51h1.23V51.28H45Z"/><path d="M61.88,73.17c-.13-.47-.22-.82-.32-1.22l-1.31.26c.09.41.16.77.24,1.21Z"/><path d="M47.35,52.51h1.23V51.28H47.35Z"/><path d="M62.91,72.84l1.25-.23L64,71.46l-1.25.23Z"/></g></g></svg>